<svg xmlns="http://www.w3.org/2000/svg" version="1.1" xmlns:xlink="http://www.w3.org/1999/xlink" xmlns:svgjs="http://svgjs.dev/svgjs" viewBox="0 0 800 800" opacity="0.42"><defs><linearGradient x1="50%" y1="0%" x2="50%" y2="100%" id="ggglitch-grad"><stop stop-color="#2f3538" stop-opacity="1" offset="45%"></stop><stop stop-color="hsla(175, 74%, 20%, 1.00)" stop-opacity="1" offset="100%"></stop></linearGradient><clipPath id="SvgjsClipPath1544"><rect width="133.33333333333334" height="800" x="0" y="0"></rect><rect width="133.33333333333334" height="800" x="266.6666666666667" y="0"></rect><rect width="133.33333333333334" height="800" x="533.3333333333334" y="0"></rect><rect width="133.33333333333334" height="800" x="800" y="0"></rect><rect width="133.33333333333334" height="800" x="1066.6666666666667" y="0"></rect><rect width="133.33333333333334" height="800" x="1333.3333333333335" y="0"></rect><rect width="133.33333333333334" height="800" x="1600" y="0"></rect></clipPath><clipPath id="SvgjsClipPath1545"><rect width="133.33333333333334" height="800" x="133.33333333333334" y="0"></rect><rect width="133.33333333333334" height="800" x="400" y="0"></rect><rect width="133.33333333333334" height="800" x="666.6666666666666" y="0"></rect><rect width="133.33333333333334" height="800" x="933.3333333333334" y="0"></rect><rect width="133.33333333333334" height="800" x="1200.0000000000002" y="0"></rect><rect width="133.33333333333334" height="800" x="1466.6666666666667" y="0"></rect></clipPath></defs><g stroke-width="45" stroke="url(#ggglitch-grad)" fill="none"><polygon points="-22.5,22.5 22.5,-22.5 822.5,777.5 777.5,822.5" stroke="none" fill="url(#ggglitch-grad)" clip-path="url(&quot;#SvgjsClipPath1544&quot;)" opacity="0.74" transform="translate(0 100)"></polygon><polygon points="-22.5,22.5 22.5,-22.5 822.5,777.5 777.5,822.5" stroke="none" fill="url(#ggglitch-grad)" clip-path="url(&quot;#SvgjsClipPath1545&quot;)"></polygon><polygon points="777.5,-22.5 822.5,22.5 22.5,822.5 -22.5,777.5" stroke="none" fill="url(#ggglitch-grad)" clip-path="url(&quot;#SvgjsClipPath1544&quot;)" opacity="0.74" transform="translate(0 100)"></polygon><polygon points="777.5,-22.5 822.5,22.5 22.5,822.5 -22.5,777.5" stroke="none" fill="url(#ggglitch-grad)" clip-path="url(&quot;#SvgjsClipPath1545&quot;)"></polygon></g></svg>