<svg xmlns="http://www.w3.org/2000/svg" version="1.1" xmlns:xlink="http://www.w3.org/1999/xlink" xmlns:svgjs="http://svgjs.dev/svgjs" viewBox="0 0 1422 800" opacity="0.18"><defs><linearGradient x1="50%" y1="0%" x2="50%" y2="100%" id="oooscillate-grad"><stop stop-color="hsl(179, 65%, 15%)" stop-opacity="1" offset="0%"></stop><stop stop-color="hsl(331, 4%, 56%)" stop-opacity="1" offset="100%"></stop></linearGradient></defs><g stroke-width="1" stroke="url(#oooscillate-grad)" fill="none" stroke-linecap="round"><path d="M 0 1764 Q 355.5 -100 711 400 Q 1066.5 900 1422 1764" opacity="0.43"></path><path d="M 0 1722 Q 355.5 -100 711 400 Q 1066.5 900 1422 1722" opacity="0.27"></path><path d="M 0 1680 Q 355.5 -100 711 400 Q 1066.5 900 1422 1680" opacity="0.61"></path><path d="M 0 1638 Q 355.5 -100 711 400 Q 1066.5 900 1422 1638" opacity="0.79"></path><path d="M 0 1596 Q 355.5 -100 711 400 Q 1066.5 900 1422 1596" opacity="0.88"></path><path d="M 0 1554 Q 355.5 -100 711 400 Q 1066.5 900 1422 1554" opacity="0.23"></path><path d="M 0 1512 Q 355.5 -100 711 400 Q 1066.5 900 1422 1512" opacity="0.11"></path><path d="M 0 1470 Q 355.5 -100 711 400 Q 1066.5 900 1422 1470" opacity="0.82"></path><path d="M 0 1428 Q 355.5 -100 711 400 Q 1066.5 900 1422 1428" opacity="0.97"></path><path d="M 0 1386 Q 355.5 -100 711 400 Q 1066.5 900 1422 1386" opacity="0.92"></path><path d="M 0 1344 Q 355.5 -100 711 400 Q 1066.5 900 1422 1344" opacity="0.44"></path><path d="M 0 1302 Q 355.5 -100 711 400 Q 1066.5 900 1422 1302" opacity="0.51"></path><path d="M 0 1260 Q 355.5 -100 711 400 Q 1066.5 900 1422 1260" opacity="0.28"></path><path d="M 0 1218 Q 355.5 -100 711 400 Q 1066.5 900 1422 1218" opacity="0.77"></path><path d="M 0 1176 Q 355.5 -100 711 400 Q 1066.5 900 1422 1176" opacity="0.25"></path><path d="M 0 1134 Q 355.5 -100 711 400 Q 1066.5 900 1422 1134" opacity="0.99"></path><path d="M 0 1092 Q 355.5 -100 711 400 Q 1066.5 900 1422 1092" opacity="0.25"></path><path d="M 0 1050 Q 355.5 -100 711 400 Q 1066.5 900 1422 1050" opacity="0.68"></path><path d="M 0 1008 Q 355.5 -100 711 400 Q 1066.5 900 1422 1008" opacity="0.79"></path><path d="M 0 966 Q 355.5 -100 711 400 Q 1066.5 900 1422 966" opacity="0.33"></path><path d="M 0 924 Q 355.5 -100 711 400 Q 1066.5 900 1422 924" opacity="0.96"></path><path d="M 0 882 Q 355.5 -100 711 400 Q 1066.5 900 1422 882" opacity="0.83"></path><path d="M 0 840 Q 355.5 -100 711 400 Q 1066.5 900 1422 840" opacity="0.99"></path><path d="M 0 798 Q 355.5 -100 711 400 Q 1066.5 900 1422 798" opacity="0.43"></path><path d="M 0 756 Q 355.5 -100 711 400 Q 1066.5 900 1422 756" opacity="0.09"></path><path d="M 0 714 Q 355.5 -100 711 400 Q 1066.5 900 1422 714" opacity="0.81"></path><path d="M 0 672 Q 355.5 -100 711 400 Q 1066.5 900 1422 672" opacity="0.86"></path><path d="M 0 630 Q 355.5 -100 711 400 Q 1066.5 900 1422 630" opacity="0.57"></path><path d="M 0 588 Q 355.5 -100 711 400 Q 1066.5 900 1422 588" opacity="0.21"></path><path d="M 0 546 Q 355.5 -100 711 400 Q 1066.5 900 1422 546" opacity="0.58"></path><path d="M 0 504 Q 355.5 -100 711 400 Q 1066.5 900 1422 504" opacity="0.80"></path><path d="M 0 462 Q 355.5 -100 711 400 Q 1066.5 900 1422 462" opacity="0.19"></path><path d="M 0 420 Q 355.5 -100 711 400 Q 1066.5 900 1422 420" opacity="0.52"></path><path d="M 0 378 Q 355.5 -100 711 400 Q 1066.5 900 1422 378" opacity="0.96"></path><path d="M 0 336 Q 355.5 -100 711 400 Q 1066.5 900 1422 336" opacity="0.65"></path><path d="M 0 294 Q 355.5 -100 711 400 Q 1066.5 900 1422 294" opacity="0.40"></path><path d="M 0 252 Q 355.5 -100 711 400 Q 1066.5 900 1422 252" opacity="0.31"></path><path d="M 0 210 Q 355.5 -100 711 400 Q 1066.5 900 1422 210" opacity="0.67"></path><path d="M 0 168 Q 355.5 -100 711 400 Q 1066.5 900 1422 168" opacity="0.49"></path><path d="M 0 126 Q 355.5 -100 711 400 Q 1066.5 900 1422 126" opacity="0.64"></path><path d="M 0 84 Q 355.5 -100 711 400 Q 1066.5 900 1422 84" opacity="0.24"></path></g></svg>